<?xml version="1.0" encoding="UTF-8"?>
<!-- Generator: Adobe Illustrator 26.0.1, SVG Export Plug-In . SVG Version: 6.00 Build 0)  -->
<svg version="1.1" id="Layer_1" xmlns="http://www.w3.org/2000/svg" xmlns:xlink="http://www.w3.org/1999/xlink" x="0px" y="0px" viewBox="0 0 781.5 308.2" style="enable-background:new 0 0 781.5 308.2;" xml:space="preserve">
<g>
	<g>
		<path d="M321.9,133.9c14.6,0,25.9,4.7,33.9,14.2l-12.6,12.3c-4.8-6.5-12-9.8-21.6-9.8c-5.2,0-9.4,1.2-12.4,3.5    c-3.1,2.3-4.6,5.5-4.6,9.4c0,3.3,1.4,5.7,4.2,7.3c2.8,1.6,7.9,2.9,15.3,3.9c12.2,1.6,21,4.7,26.1,9.4c5.2,4.7,7.8,11.7,7.8,21    c0,9.4-3.3,16.8-9.9,22.3c-6.6,5.5-15.4,8.2-26.6,8.2c-17.4,0-30.6-5.4-39.7-16.3l12.4-12.9c7.3,8.3,16.1,12.4,26.5,12.4    c5.4,0,9.8-1.1,13-3.4c3.2-2.3,4.8-5.4,4.8-9.3c0-3.9-1.5-6.8-4.6-8.8c-3.1-2-8.6-3.6-16.7-4.8c-11.8-1.7-20-4.6-24.9-8.9    c-4.8-4.2-7.3-10.6-7.3-19.1c0-9.3,3.3-16.7,10-22.3C301.8,136.7,310.7,133.9,321.9,133.9z"/>
		<path d="M409.7,159.4c17.1,0,25.6,10.1,25.6,30.2v44.6h-18.2v-44.3c0-9.8-3.8-14.7-11.3-14.7c-6.6,0-11.7,3.8-15.1,11.3v47.7    h-18.2V130.5h18.2v36.7h0.3C396.1,162,402.3,159.4,409.7,159.4z"/>
		<path d="M484.1,159.4c10,0,17.7,2.8,23.2,8.3c5.5,5.5,8.2,13.3,8.2,23.3v12.3h-45.3c0,5.7,1.3,9.9,3.8,12.6c2.5,2.7,6.4,4,11.6,4    c6.3,0,11.8-3.1,16.6-9.2l12.7,9.8c-7.4,10.2-17.5,15.3-30.4,15.3c-10.4,0-18.4-2.8-24.1-8.4c-5.7-5.6-8.5-13.6-8.5-23.8v-11.6    c0-10.4,2.8-18.4,8.4-24C465.9,162.2,473.8,159.4,484.1,159.4z M470.2,191.4h28.3c0-10.8-4.8-16.1-14.4-16.1    C474.8,175.3,470.2,180.6,470.2,191.4z"/>
		<path d="M569.3,159.4c17.1,0,25.6,10.1,25.6,30.2v44.6h-18.2v-44.3c0-9.8-3.8-14.7-11.3-14.7c-6.6,0-11.7,3.8-15.1,11.3v47.7    h-18.2v-73.3h15l1,8.9h0.3C553.8,162.9,560.8,159.4,569.3,159.4z"/>
		<path d="M619.6,235.7c-1.8,0-3.2-0.6-4.4-1.7c-1.1-1.1-1.7-2.5-1.7-4.2c0-1.8,0.6-3.2,1.7-4.3c1.1-1.1,2.6-1.6,4.4-1.6    c1.7,0,3.1,0.5,4.2,1.6c1.1,1.1,1.7,2.5,1.7,4.3c0,1.7-0.6,3.1-1.7,4.2C622.7,235.1,621.3,235.7,619.6,235.7z"/>
		<path d="M711.5,234.2l-8.8-24h-48.1l-8.8,24h-7.3l36.7-98.8h7.1l36.9,98.8H711.5z M678.5,145.2l-21.5,58.5h43.3l-21.5-58.5    L678.5,145.2z"/>
		<path d="M743.9,234.2h-7.3v-98.8h7.3V234.2z"/>
	</g>
	<g>
		<path d="M53.5,160.5c0.8,0.2,1.5,0.1,2.1-0.3c0.9-0.5,1.5-1.7,1.5-3.3c0-1.6-0.6-3.4-1.5-5c-0.9-1.6-2.2-3-3.6-3.8    c-1.4-0.8-2.7-0.9-3.6-0.4c-0.9,0.5-1.5,1.7-1.5,3.3c0,1.6,0.6,3.4,1.5,5c0.6,1,1.3,1.9,2.1,2.6l0,5.8l-14.8,8.9V236l3,1.8v0    v-61.1l14.8-8.9V160.5z"/>
		<polygon points="38.7,132 35.7,130.2 35.7,152.7 38.7,154.4   "/>
		<polygon points="50.4,244.5 53.5,246.3 53.5,206.8 50.4,205.1   "/>
		<polygon points="53.5,193.4 53.5,193.4 53.5,193.4   "/>
		<polygon points="68.2,176.1 68.2,149 65.2,147.3 65.2,172.8 50.4,181.9 50.4,191.6 53.5,193.4 53.5,185.2   "/>
		<polygon points="65.2,226.8 65.2,253 68.2,254.8 68.2,230 80.3,222.8 80.3,261.7 83.3,263.5 83.3,215.9   "/>
		<polygon points="68.2,254.8 68.2,254.8 68.2,254.8   "/>
		<polygon points="124.2,241.8 124.2,283.6 112.5,276.8 112.5,270.1 109.5,268.4 109.5,278.6 127.3,288.9 127.3,243.5 124.2,241.8       "/>
		<path d="M124.2,181.3v37.5l-14.8,8.9v17.5c-0.8-0.2-1.5-0.1-2.1,0.3c-0.9,0.5-1.5,1.7-1.5,3.3c0,1.6,0.6,3.4,1.5,5    c0.9,1.6,2.2,3,3.6,3.8c1.4,0.8,2.7,0.9,3.6,0.4c0.9-0.5,1.5-1.7,1.5-3.3c0-1.6-0.6-3.4-1.5-5c-0.6-1-1.3-1.9-2.1-2.6l0-16.1    l14.8-8.9v-39L124.2,181.3L124.2,181.3z"/>
		<path d="M83,191v-33.5l-3-1.8v33.5c-0.8-0.2-1.5-0.1-2.1,0.3c-0.9,0.5-1.5,1.7-1.5,3.3c0,1.6,0.6,3.4,1.5,5c0.9,1.6,2.2,3,3.6,3.8    c1.4,0.8,2.7,0.9,3.6,0.4c0.9-0.5,1.5-1.7,1.5-3.3c0-1.6-0.6-3.4-1.5-5C84.5,192.7,83.8,191.8,83,191z"/>
		<polygon points="65.2,208.5 68.2,210.3 68.2,191.3 65.2,189.6   "/>
		<polygon points="109.5,176.3 109.5,209.6 112.5,211.4 112.5,211.4 112.5,174.6 94.7,164.3 94.7,215.1 97.7,216.9 97.7,169.6   "/>
		<polygon points="94.7,270.1 97.7,271.8 97.7,240.6 94.7,238.8   "/>
		<path d="M154.6,199.8c-0.9-0.6-2.2-0.5-3.6,0.3c-1.4,0.8-2.7,2.2-3.6,3.8c-0.9,1.6-1.5,3.4-1.5,5.1c0,1.6,0.6,2.8,1.5,3.4    c0.6,0.3,1.3,0.4,2.1,0.3v64.1l-11.7,6.8V181.3l-3,1.8h0v105.8l17.8-10.3v-67.7c0.8-0.8,1.5-1.7,2.1-2.7c0.9-1.6,1.5-3.4,1.5-5.1    C156.1,201.5,155.5,200.3,154.6,199.8z"/>
		<polygon points="149.5,174.6 149.5,186 167.4,196.7 167.4,164.2 164.3,166 164.3,189.9 152.5,182.8 152.5,172.8 149.5,174.6   "/>
		<polygon points="167.3,270.1 167.3,270.1 167.3,270.1   "/>
		<polygon points="182.1,189.5 182.1,167.2 179.1,168.9 179.1,189.7 164.2,216 164.2,271.8 167.3,270.1 167.3,215.8   "/>
		<path d="M208.5,167.9l-14.7,25.8v57.6L182,258v-35.7c0.8-0.8,1.5-1.7,2.1-2.7c0.9-1.6,1.5-3.4,1.5-5.1c0-1.6-0.6-2.8-1.5-3.4    c-0.9-0.6-2.2-0.5-3.6,0.3c-1.4,0.8-2.7,2.2-3.6,3.8c-0.9,1.6-1.5,3.4-1.5,5.1c0,1.6,0.6,2.8,1.5,3.4c0.6,0.3,1.3,0.4,2,0.3v39.4    l17.8-10.3v-59.6l14.7-25.8v-11.4l-3,1.8V167.9z"/>
		<path d="M193.7,149v14.1c-0.8,0.7-1.5,1.6-2,2.6c-0.9,1.6-1.5,3.4-1.5,5.1c0,1.6,0.6,2.8,1.5,3.4c0.9,0.6,2.2,0.5,3.6-0.3    c1.4-0.8,2.7-2.2,3.6-3.8c0.9-1.6,1.5-3.4,1.5-5.1c0-1.6-0.6-2.8-1.5-3.4c-0.6-0.4-1.3-0.4-2.2-0.3v-14L193.7,149z"/>
		<polygon points="208.5,246.3 211.5,244.5 211.5,182.7 208.5,184.5   "/>
		<polygon points="226.3,160.1 226.3,130.2 223.3,132 223.3,132 223.3,161.8 223.3,194.6 226.3,192.8   "/>
		<polygon points="223.3,237.7 226.3,236 226.3,216 223.3,217.8   "/>
		<path d="M129.3,157.8c-0.7,0.7-1.1,1.4-1.1,2.2c0,1.1,0.7,2.2,2.2,3c1.4,0.8,3.3,1.2,5.2,1.3c1.8,0,3.7-0.4,5.1-1.2    c1.4-0.8,2.1-1.9,2.1-3c0-1.1-0.7-2.2-2.2-3c-1.4-0.8-3.3-1.2-5.2-1.3c-1,0-2,0.1-2.9,0.3l-9.4-5.4l-30.7-0.4l-50.1-28.9l-3,1.8    l0,0l51.4,29.7l30.7,0.4L129.3,157.8z"/>
		<polygon points="107.9,162.8 131,176.1 134,174.4 111,161.1   "/>
		<polygon points="111,144.1 57.1,113 54.1,114.7 107.9,145.8   "/>
		<polygon points="141.2,127.5 86.6,96 83.6,97.7 83.6,97.7 130.5,124.9 106.5,124.6 71.8,104.5 68.8,106.3 104.8,127.1   "/>
		<polygon points="178.2,148.9 155.7,135.9 119.3,135.7 144.8,150.4 147.9,148.7 129.8,138.3 154,138.4 175.2,150.6   "/>
		<polygon points="178.2,148.9 178.2,148.9 178.2,148.9   "/>
		<polygon points="163.4,157.4 155.3,152.8 152.3,154.5 160.4,159.2   "/>
		<polygon points="186.4,123.1 204.6,133.6 207.6,131.9 207.6,131.9 190.7,122.1 190.4,104.6 143.1,77.3 140,79.1 186.1,105.7   "/>
		<polygon points="192.9,140.4 192.9,140.4 192.9,140.4   "/>
		<path d="M192.9,140.4l-88.5-51.1l11.7-6.8l46.5,26.8c-0.5,0.6-0.8,1.3-0.8,1.9c0,1.1,0.7,2.2,2.2,3c1.4,0.8,3.3,1.2,5.2,1.3    c1.9,0,3.7-0.4,5.1-1.2c1.4-0.8,2.1-1.9,2.1-3c0-1.1-0.7-2.2-2.2-3c-1.4-0.8-3.3-1.2-5.2-1.3c-1.1,0-2.3,0.2-3.3,0.5L116,79    L98.3,89.2l91.6,52.9L192.9,140.4z"/>
		<polygon points="205.6,117.2 219.3,125.1 222.4,123.4 208.7,115.5   "/>
	</g>
</g>
<g>
	<path d="M405.2,67.5c0,5.6-1.3,10.1-4,13.5c-2.7,3.4-6.3,5.1-11,5.1c-2.4,0-4.5-0.4-6.3-1.2c-1.8-0.8-3.3-2-4.6-3.6v18.9h-7V46.7   h5.4l1.1,5c1.3-1.9,2.8-3.3,4.7-4.2c1.9-1,4.1-1.5,6.6-1.5c4.8,0,8.5,1.9,11.2,5.7s4,8.8,4,15V67.5z M398.2,66.8   c0-4.4-0.9-8-2.6-10.8c-1.7-2.8-4.3-4.2-7.6-4.2c-2,0-3.7,0.5-5.2,1.4c-1.4,0.9-2.6,2.2-3.5,3.8v18.6c0.9,1.6,2,2.8,3.5,3.7   c1.4,0.9,3.2,1.3,5.2,1.3c3.3,0,5.9-1.2,7.6-3.7c1.7-2.4,2.6-5.6,2.6-9.4V66.8z"/>
	<path d="M412.2,65.7c0-5.7,1.5-10.4,4.6-14.1c3.1-3.7,7.3-5.6,12.6-5.6c5.4,0,9.6,1.8,12.7,5.5c3.1,3.7,4.7,8.4,4.7,14.1v0.8   c0,5.8-1.5,10.5-4.6,14.1c-3.1,3.7-7.3,5.5-12.6,5.5c-5.3,0-9.5-1.8-12.7-5.5c-3.1-3.7-4.7-8.4-4.7-14.1V65.7z M419.2,66.5   c0,4.1,0.9,7.5,2.6,10.1c1.7,2.7,4.3,4,7.7,4c3.4,0,5.9-1.3,7.6-4c1.7-2.7,2.6-6,2.6-10.1v-0.8c0-4-0.9-7.4-2.6-10.1   c-1.7-2.7-4.3-4-7.7-4c-3.4,0-5.9,1.3-7.6,4c-1.7,2.7-2.6,6-2.6,10.1V66.5z"/>
	<path d="M465.3,71.3l0.8,4.7h0.2l1-4.7l7.7-24.6h5.6l7.7,24.6l1.1,5.2h0.2l1-5.2l6.1-24.6h7l-11.2,38.6H487l-7.5-23.5l-1.6-6.6   l-0.2,0l-1.5,6.5l-7.4,23.5h-5.7l-11.2-38.6h7L465.3,71.3z"/>
	<path d="M526.8,86.1c-5.4,0-9.7-1.8-12.8-5.4c-3.2-3.6-4.8-8.2-4.8-13.9v-1.6c0-5.5,1.6-10.1,4.9-13.7c3.3-3.7,7.1-5.5,11.6-5.5   c5.2,0,9.2,1.6,11.8,4.7s4,7.3,4,12.6v4.4h-25.1l-0.1,0.2c0.1,3.7,1,6.7,2.8,9.1c1.8,2.4,4.3,3.6,7.6,3.6c2.4,0,4.5-0.3,6.3-1   c1.8-0.7,3.3-1.6,4.7-2.8l2.7,4.6c-1.4,1.4-3.2,2.5-5.5,3.4C532.7,85.7,530,86.1,526.8,86.1z M525.7,51.6c-2.4,0-4.4,1-6,3   c-1.7,2-2.7,4.5-3.1,7.5l0.1,0.2h17.8v-0.9c0-2.8-0.7-5.1-2.2-6.9C530.8,52.5,528.6,51.6,525.7,51.6z"/>
	<path d="M567.7,53l-3.6-0.2c-1.9,0-3.4,0.4-4.7,1.3c-1.3,0.9-2.3,2.1-2.9,3.7v27.6h-7V46.7h6.3l0.7,5.6c1.1-2,2.4-3.6,4.1-4.7   c1.6-1.1,3.5-1.7,5.6-1.7c0.5,0,1,0,1.5,0.1c0.5,0.1,0.9,0.2,1.2,0.3L567.7,53z"/>
	<path d="M589.8,86.1c-5.4,0-9.7-1.8-12.8-5.4c-3.2-3.6-4.8-8.2-4.8-13.9v-1.6c0-5.5,1.6-10.1,4.9-13.7c3.3-3.7,7.1-5.5,11.6-5.5   c5.2,0,9.2,1.6,11.8,4.7c2.7,3.1,4,7.3,4,12.6v4.4h-25.1l-0.1,0.2c0.1,3.7,1,6.7,2.8,9.1c1.8,2.4,4.3,3.6,7.6,3.6   c2.4,0,4.5-0.3,6.3-1c1.8-0.7,3.3-1.6,4.7-2.8l2.7,4.6c-1.4,1.4-3.2,2.5-5.5,3.4C595.7,85.7,593,86.1,589.8,86.1z M588.7,51.6   c-2.4,0-4.4,1-6,3c-1.7,2-2.7,4.5-3.1,7.5l0.1,0.2h17.8v-0.9c0-2.8-0.7-5.1-2.2-6.9C593.8,52.5,591.6,51.6,588.7,51.6z"/>
	<path d="M610.8,66.8c0-6.2,1.3-11.2,4-15c2.7-3.8,6.4-5.7,11.2-5.7c2.3,0,4.3,0.4,6,1.2c1.7,0.8,3.2,2,4.5,3.6V29.7h7v55.7h-5.7   l-0.8-4.7c-1.3,1.8-2.8,3.2-4.6,4.1c-1.8,0.9-4,1.4-6.4,1.4c-4.7,0-8.4-1.7-11.1-5.1c-2.7-3.4-4-7.9-4-13.5V66.8z M617.9,67.5   c0,3.9,0.8,7,2.4,9.4c1.6,2.3,4.1,3.5,7.4,3.5c2.1,0,3.9-0.5,5.3-1.4c1.4-1,2.6-2.3,3.5-4V57c-0.9-1.6-2.1-2.9-3.5-3.8   s-3.2-1.4-5.2-1.4c-3.4,0-5.9,1.4-7.5,4.2c-1.6,2.8-2.4,6.4-2.4,10.9V67.5z"/>
	<path d="M705.1,67.5c0,5.6-1.3,10.1-4,13.5c-2.7,3.4-6.4,5.1-11,5.1c-2.5,0-4.8-0.5-6.6-1.5c-1.9-1-3.4-2.4-4.7-4.4l-0.9,5.1h-5.7   V29.7h7v21.6c1.2-1.7,2.7-3,4.5-3.9c1.8-0.9,3.9-1.4,6.3-1.4c4.8,0,8.5,1.9,11.1,5.7c2.7,3.8,4,8.8,4,15V67.5z M698.1,66.8   c0-4.4-0.8-8-2.4-10.8c-1.6-2.8-4.1-4.2-7.4-4.2c-2.2,0-4,0.5-5.5,1.6c-1.5,1.1-2.7,2.5-3.6,4.3v16.7c0.9,1.9,2.1,3.4,3.6,4.5   c1.5,1.1,3.3,1.6,5.6,1.6c3.3,0,5.8-1.2,7.4-3.5c1.6-2.4,2.4-5.5,2.4-9.4V66.8z"/>
	<path d="M725.1,71.1l1.2,4.9h0.2l9.5-29.2h7.8l-16.2,44.5c-1,2.6-2.4,4.9-4.2,6.8c-1.8,1.9-4.3,2.9-7.4,2.9c-0.6,0-1.3-0.1-2.2-0.2   c-0.9-0.1-1.6-0.3-2-0.4l0.7-5.5c-0.1,0,0.3,0,1.3,0.1c1,0.1,1.6,0.1,1.9,0.1c1.5,0,2.7-0.7,3.7-2c1-1.3,1.7-2.8,2.4-4.4l1.7-4   l-14.3-37.8h7.9L725.1,71.1z"/>
</g>
</svg>