<svg xmlns="http://www.w3.org/2000/svg" width="65.231" height="88.893" viewBox="0 0 65.231 88.893">
  <path id="Subtraction_2" data-name="Subtraction 2" d="M47.514,88.893h0l-33.3-30.227a44.747,44.747,0,0,1-7.941-9.449H27.661a1.678,1.678,0,0,0,1.5-.917l6.821-13.442L46.674,62.25A1.665,1.665,0,0,0,48.2,63.265h.1a1.627,1.627,0,0,0,1.528-1.222L59.2,29.968l4.987,16.19a1.672,1.672,0,0,0,1.045,1.052V73.085L47.515,88.892Zm.59-32.452,0,0L37.818,30.169a1.537,1.537,0,0,0-1.426-1.015l-.095,0a1.583,1.583,0,0,0-1.433.918L26.82,45.853h-.012v.1H4.425A41.725,41.725,0,0,1,.974,36.575C-.415,30.684.056,27.151.164,26.5,1.558,11.146,12.439,0,26.038,0a24.816,24.816,0,0,1,21.5,12.693A25.7,25.7,0,0,1,65.231.394V38.078l-4.4-14.326A1.9,1.9,0,0,0,59.2,22.53a1.738,1.738,0,0,0-1.628,1.222L48.105,56.436Z" fill="#414141" opacity="0.15"/>
</svg>
