<svg xmlns="http://www.w3.org/2000/svg" width="75.263" height="88.356" viewBox="0 0 75.263 88.356">
  <path id="Subtraction_4" data-name="Subtraction 4" d="M5.523,88.356a1.79,1.79,0,0,1-1.7-1.263c-.367-1.208-8.873-29.829.743-50.85C11.821,20.381,20.844,10.911,28.7,10.911A8.1,8.1,0,0,1,33.009,12.1c6.354,3.911,6.649,16.138,6.662,17.519l0,.076c.064,2.526.124,5.506.168,8.391l2.569-.945V1.778A1.78,1.78,0,0,1,44.189,0h3.6a1.781,1.781,0,0,1,1.78,1.778v35.36l2.569.945c.078-5.054.17-8.465.171-8.5.012-1.378.3-13.572,6.661-17.487a8.086,8.086,0,0,1,4.308-1.186,12.531,12.531,0,0,1,5.912,1.644,25.683,25.683,0,0,1,6.073,4.754V36.025a1.782,1.782,0,0,0-1.732.236l-2.7,2.045L70.6,36.244a1.775,1.775,0,0,0-1.769-1.584,1.816,1.816,0,0,0-.194.01,1.779,1.779,0,0,0-1.573,1.964l.461,4.174-3.71,2.812-4.947-2.556a1.778,1.778,0,0,0-2.4.764,1.777,1.777,0,0,0,.763,2.4l12.67,6.546v5.316l-.967,2.955-2.423,2.346a1.779,1.779,0,0,0,2.474,2.556L71.6,61.416l2.959,3.266a1.781,1.781,0,0,0,.7.474V85.242c-1.682-.543-3.294-1.1-4.793-1.643C59.354,79.541,53.6,75.554,52.882,71.41c-.876-5.053-.915-18.862-.794-29.556l-4.856-1.785H44.746l-4.855,1.785c.121,10.692.081,24.5-.8,29.556-.718,4.144-6.471,8.132-17.587,12.189a156.507,156.507,0,0,1-15.57,4.708A1.833,1.833,0,0,1,5.523,88.356ZM18.511,52.609v5.563l-3.733,4.121a1.779,1.779,0,1,0,2.636,2.389l2.959-3.265,2.611,2.526a1.779,1.779,0,1,0,2.474-2.556l-2.422-2.345-.967-2.955V50.77l12.669-6.545a1.779,1.779,0,0,0-.818-3.359,1.761,1.761,0,0,0-.815.2l-4.947,2.556-3.711-2.812.461-4.175a1.78,1.78,0,0,0-1.572-1.963,1.829,1.829,0,0,0-.193-.01,1.778,1.778,0,0,0-1.771,1.583l-.228,2.062-2.7-2.045a1.779,1.779,0,0,0-2.493.343A1.783,1.783,0,0,0,16.3,39.1l8.357,6.333-9.747,5.037-4.03-3.214a1.778,1.778,0,1,0-2.217,2.781l2.785,2.222-1.557.8a1.779,1.779,0,0,0,.817,3.36,1.762,1.762,0,0,0,.815-.2l6.988-3.611Zm56.752,7.547,0,0-1.794-1.979V52.61l1.8.928v6.618Zm0-10.622h0l-7.94-4.1,7.941-6.019V49.534Z" fill="#414141" opacity="0.15"/>
</svg>
